# xmcd CD database file
#
# Track frame offsets:
#	150
#	12320
#	24450
#	39885
#	51305
#	65262
#	79407
#	92085
#	105320
#	118047
#
# Disc length: 1781 seconds
#
# Revision: 1
# Processed by: cddbd v1.5.2PL0 Copyright (c) Steve Scherf et al.
# Submitted via: CDex 1.79
#
DISCID=7506f30a
DTITLE=Sharon Cort - Highway To Here
DYEAR=1997
DGENRE=Bluegrass
TTITLE0=Willoughby
TTITLE1=Many Mansions
TTITLE2=Stranded
TTITLE3=Roses On My Street
TTITLE4=Old Love Letters
TTITLE5=Don't forget Your Way Home
TTITLE6=Morristown
TTITLE7=Cry Cry Darlin'
TTITLE8=Home Again
TTITLE9=Maiden On The Bow
EXTD=YEAR: 1997
EXTT0=
EXTT1=
EXTT2=
EXTT3=
EXTT4=
EXTT5=
EXTT6=
EXTT7=
EXTT8=
EXTT9=
PLAYORDER=
